<svg xmlns="http://www.w3.org/2000/svg" width="200" height="200" viewBox="0 0 200 200">
  <circle cx="100" cy="100" r="90" fill="#1e5b94" />
  <circle cx="100" cy="100" r="70" fill="#ffffff" />
  <path d="M100,40 C70,40 45,65 45,95 C45,125 70,150 100,150 C130,150 155,125 155,95 C155,65 130,40 100,40 Z M100,140 C75,140 55,120 55,95 C55,70 75,50 100,50 C125,50 145,70 145,95 C145,120 125,140 100,140 Z" fill="#1e5b94" />
  <path d="M85,70 L85,120 L115,120 L115,70 Z" fill="#1e5b94" />
  <path d="M70,85 L130,85 L130,105 L70,105 Z" fill="#1e5b94" />
</svg>